<svg width="471" height="471" viewBox="0 0 471 471" fill="none" xmlns="http://www.w3.org/2000/svg">
<rect x="471" y="471" width="471" height="471" rx="68" transform="rotate(180 471 471)" fill="#293621"/>
<path fill-rule="evenodd" clip-rule="evenodd" d="M266.317 50.6126C293.081 58.9749 309.425 77.5022 316.32 107.291C320.83 126.765 320.704 197.421 316.128 215.286C312.553 229.251 304.043 244.798 294.704 254.429L288.636 260.687L293.212 277.205C295.729 286.291 298.875 298.455 300.204 304.236C301.531 310.018 308.553 338.264 315.809 367.003C323.064 395.745 329 420.776 329 422.629C329 425.818 327.454 426 300.334 426H271.667L264.42 395.778C260.435 379.155 255.898 361.22 254.338 355.92C251.383 345.88 245.877 322.263 243.29 308.52C241.271 297.791 238.29 287.214 236.511 284.462C235.442 282.806 230.219 282.34 216.817 282.71L198.579 283.213L197.703 354.168L196.828 425.124H169.693H142.559L142.107 237.661C141.86 134.556 142.055 49.1532 142.541 47.8777C143.256 45.9978 153.997 45.6895 199.011 46.2536C249.317 46.8826 255.712 47.2978 266.317 50.6126ZM198.864 103.172C198.272 104.129 197.73 131.949 197.658 164.995C197.553 212.535 198.001 225.376 199.802 226.494C201.056 227.271 210.828 227.653 221.519 227.345C244.123 226.691 252.088 223.466 260.264 211.658L265.102 204.669V163.219C265.102 122.05 265.073 121.726 260.792 115.477C253.995 105.55 247.265 103.26 222.016 102.286C208.351 101.759 199.527 102.097 198.864 103.172Z" fill="#BE965C"/>
</svg>
