<svg width="507" height="416" viewBox="0 0 507 416" fill="none" xmlns="http://www.w3.org/2000/svg">
<path fill-rule="evenodd" clip-rule="evenodd" d="M227.888 347.533C228.202 347.785 228.736 348.659 229.074 349.475C229.562 350.653 229.56 351.114 229.066 351.709C228.109 352.862 227.169 352.606 226.317 350.958C225.451 349.284 224.972 349.118 224.087 350.184C223.2 351.253 223.863 352.723 226.589 355.733C229.562 359.016 230.176 361.317 228.766 363.905C227.666 365.927 225.861 366.597 223.369 365.909C220.487 365.113 219.366 360.208 222.067 360.208C223.059 360.208 223.349 360.492 223.475 361.583C223.599 362.663 223.894 362.958 224.85 362.958C225.872 362.958 226.067 362.715 226.067 361.437C226.067 360.326 225.467 359.274 223.843 357.538C221.519 355.053 220.567 353.211 220.567 351.199C220.567 349.304 221.601 347.534 223.014 347.01C224.397 346.497 226.938 346.769 227.888 347.533ZM257.369 347.501C257.724 347.797 258.265 348.793 258.569 349.716C259.388 352.197 258.463 354.899 255.551 358.526C254.185 360.229 253.067 361.911 253.067 362.264C253.067 362.686 253.967 362.958 255.692 363.057C258.118 363.197 258.317 363.303 258.317 364.458C258.317 365.694 258.267 365.708 254.067 365.708C249.934 365.708 249.812 365.674 249.643 364.48C249.377 362.593 250.381 359.878 251.996 358.112C252.8 357.235 253.932 355.85 254.512 355.035C255.793 353.236 255.932 350.205 254.753 349.753C253.656 349.332 252.567 350.321 252.567 351.74C252.567 353.159 251.896 353.63 250.503 353.188C249.598 352.901 249.487 352.573 249.716 350.867C250.014 348.642 251.139 347.127 252.744 346.787C254.2 346.479 256.579 346.846 257.369 347.501ZM266.808 346.955C268.86 347.735 269.567 350.152 269.567 356.381C269.567 362.883 268.871 365.08 266.558 365.886C264.466 366.616 262.239 366.085 261.051 364.575C260.18 363.468 260.067 362.531 260.067 356.458C260.067 350.328 260.175 349.456 261.077 348.309C261.972 347.171 262.85 346.763 264.909 346.526C265.235 346.489 266.09 346.682 266.808 346.955ZM278.942 348.099C280.008 349.078 280.067 349.508 280.067 356.268C280.067 362.996 280.001 363.479 278.915 364.742C277.223 366.709 273.935 366.737 272.267 364.798C271.12 363.465 271.067 363.085 271.078 356.305C271.087 350.342 271.227 349.036 271.953 348.128C273.483 346.215 276.874 346.201 278.942 348.099ZM289.817 348.021C290.821 348.99 290.833 349.115 290.552 355.708C290.517 356.533 290.638 358.333 290.821 359.708C291.27 363.075 290.53 364.816 288.243 365.771C286.666 366.43 286.166 366.441 284.621 365.853C282.186 364.927 281.451 363.374 281.829 359.958C282.141 357.133 282.151 356.396 281.94 351.761C281.846 349.713 282.04 348.816 282.744 348.039C284.362 346.25 287.972 346.241 289.817 348.021ZM218.975 348.333C218.83 349.592 218.617 349.721 216.442 349.861C214.325 349.996 214.058 350.146 213.983 351.236C213.778 354.256 213.746 354.199 215.817 354.458C217.55 354.675 217.817 354.875 217.817 355.958C217.817 356.976 217.538 357.24 216.317 357.377C214.092 357.629 213.523 358.336 213.683 360.655L213.825 362.708L216.476 362.86C219.03 363.007 219.122 363.062 218.972 364.36C218.82 365.68 218.736 365.711 214.942 365.854L211.067 366V356.479V346.958H215.1H219.133L218.975 348.333ZM239.475 348.313C239.362 349.283 238.961 349.752 238.067 349.96C236.818 350.252 236.817 350.257 236.695 356.98C236.544 365.322 236.411 365.958 234.82 365.958H233.592L233.454 358.115L233.317 350.271L231.692 349.85C230.41 349.519 230.067 349.168 230.067 348.194C230.067 346.966 230.096 346.958 234.85 346.958H239.633L239.475 348.313ZM263.87 350.249C263.703 350.684 263.567 353.722 263.567 356.999V362.958H264.817H266.067V356.512C266.067 351.095 265.94 350.017 265.276 349.762C264.208 349.352 264.215 349.35 263.87 350.249ZM274.625 350.138C274.225 350.621 274.08 352.759 274.175 356.779C274.312 362.521 274.353 362.713 275.457 362.87L276.596 363.032L276.457 356.411C276.317 349.822 275.945 348.547 274.625 350.138ZM285.766 349.841C284.894 350.423 284.643 352.873 285.357 353.833C285.87 354.523 286.2 354.592 286.912 354.158C288.003 353.494 288.369 351.175 287.542 350.178C286.871 349.37 286.561 349.311 285.766 349.841ZM205.067 356.155C205.067 357.5 204.246 357.958 201.837 357.958C200.024 357.958 198.793 356.893 199.245 355.715C199.456 355.166 200.294 354.958 202.301 354.958C204.885 354.958 205.067 355.037 205.067 356.155ZM302.475 356.333C302.326 357.629 302.172 357.708 299.817 357.708C297.461 357.708 297.308 357.629 297.159 356.333C297.003 354.977 297.039 354.958 299.817 354.958C302.594 354.958 302.631 354.977 302.475 356.333ZM285.78 357.841C284.916 358.433 284.572 359.857 284.898 361.49C285.155 362.776 285.405 362.988 286.51 362.86C287.631 362.73 287.839 362.437 287.974 360.798C288.179 358.313 287.139 356.911 285.78 357.841ZM243.475 364.333C243.293 365.919 241.279 366.594 240.761 365.243C240.266 363.953 240.951 362.958 242.334 362.958C243.456 362.958 243.612 363.146 243.475 364.333Z" fill="#F5F5F5"/>
<path fill-rule="evenodd" clip-rule="evenodd" d="M217.77 158.255C222.393 159.428 225.977 161.452 229.25 164.738C234.1 169.607 235.49 171.963 236.695 177.349C237.389 180.452 237.5 185.351 237.5 212.92C237.5 248.23 237.364 250.099 234.405 255.341C225.763 270.655 205.975 273.539 193.875 261.249C192.019 259.363 190.5 257.524 190.5 257.16C190.5 256.797 190.315 256.5 190.089 256.5C189.417 256.5 187.538 251.889 186.98 248.871C186.644 247.054 186.512 233.845 186.606 211.407L186.75 176.75L188.062 173.695C193.156 161.83 205.849 155.233 217.77 158.255ZM147.097 160.369C154.741 162.755 159.409 168.043 161.379 176.544C162.667 182.102 162.631 202.266 161.324 207.365C160.303 211.35 157.872 215.787 155.205 218.536L153.472 220.322L154.779 225.036C155.498 227.629 156.396 231.1 156.776 232.75C157.155 234.4 159.16 242.461 161.233 250.663C163.305 258.865 165 266.009 165 266.538C165 267.448 164.559 267.5 156.813 267.5H148.625L146.555 258.875C145.417 254.131 144.121 249.013 143.676 247.5C142.832 244.635 141.259 237.895 140.52 233.973C139.944 230.911 139.092 227.892 138.584 227.107C138.279 226.634 136.787 226.501 132.959 226.607L127.75 226.75L127.5 247L127.25 267.25H119.5H111.75L111.621 213.75C111.551 184.325 111.606 159.952 111.745 159.588C111.949 159.052 115.017 158.963 127.874 159.124C142.242 159.304 144.068 159.423 147.097 160.369ZM311 167.186C311 175.66 311.016 175.573 308.491 181.25C308.246 181.8 307.336 184.163 306.468 186.5C305.6 188.838 304.702 191.2 304.472 191.75C304.241 192.3 303.343 194.55 302.475 196.75C301.606 198.95 300.499 201.65 300.013 202.75C299.528 203.85 298.961 205.313 298.754 206C298.547 206.688 298.211 207.475 298.008 207.75C297.805 208.025 297.481 208.925 297.29 209.75C297.098 210.575 296.541 212.15 296.051 213.25C294.387 216.989 292.609 221.421 290.235 227.75C288.647 231.986 287.209 235.537 285.944 238.348C285.425 239.501 284.999 240.626 284.997 240.848C284.995 241.069 284.111 243.384 283.033 245.992C281.613 249.428 281.218 250.909 281.598 251.367C281.999 251.85 285.531 252 296.561 252H311V259.75V267.5H287.5H264L264.011 259.125C264.021 251.772 264.147 250.475 265.044 248.5C266.025 246.341 267.398 242.896 269.63 237C270.202 235.487 271.504 232.225 272.522 229.75C273.541 227.275 275.426 222.438 276.71 219C277.995 215.563 279.347 212.075 279.714 211.25C280.081 210.425 280.858 208.675 281.441 207.362C282.024 206.048 282.5 204.732 282.5 204.437C282.5 204.143 282.822 203.192 283.215 202.326C284.056 200.47 291.799 181.132 292.833 178.302C294.146 174.711 294.871 174.891 278.75 174.817L264.25 174.75L264.113 166.875L263.975 159H287.488H311V167.186ZM377.677 163.375C378.107 165.782 379.033 171.35 379.735 175.75C380.437 180.15 381.258 185.1 381.559 186.75C381.86 188.4 382.433 191.775 382.834 194.25C383.235 196.725 383.983 201.338 384.498 204.5C385.013 207.663 385.776 212.388 386.195 215C386.613 217.613 387.294 221.663 387.709 224C388.123 226.338 388.909 230.95 389.456 234.25C390.003 237.55 390.827 242.5 391.286 245.25C391.746 248 392.404 252.275 392.75 254.75C393.096 257.225 393.615 260.15 393.905 261.25C394.195 262.35 394.503 264.15 394.591 265.25L394.75 267.25H386.516H378.282L376.657 256C375.764 249.812 374.909 244.244 374.757 243.625C374.484 242.513 374.381 242.5 365.978 242.5C356.224 242.5 356.937 242.113 356.313 247.75C356.13 249.4 355.552 252.888 355.028 255.5C354.503 258.112 353.925 261.579 353.742 263.203C353.558 264.827 353.293 266.459 353.151 266.828C352.789 267.771 336.999 267.817 337.003 266.875C337.004 266.532 337.462 263.55 338.021 260.25C338.579 256.95 339.233 252.9 339.475 251.25C340.013 247.582 341.754 237.177 342.738 231.75C343.137 229.55 343.937 224.938 344.516 221.5C345.095 218.063 345.879 213.563 346.257 211.5C346.635 209.438 347.196 205.838 347.503 203.5C347.811 201.163 348.385 197.563 348.779 195.5C349.564 191.399 350.23 187.488 352.525 173.5C353.36 168.413 354.275 163.069 354.558 161.625L355.072 159H365.984H376.896L377.677 163.375ZM206.228 174.818C205.116 175.531 203.654 177.045 202.978 178.183L201.75 180.25L201.596 211.75C201.484 234.516 201.602 243.804 202.02 245.25C204.119 252.513 212.75 254.939 218.128 249.777C221.066 246.957 221 247.815 221 212.513V180.148L219.875 178.496C219.256 177.587 217.894 176.154 216.847 175.311C215.208 173.992 214.48 173.761 211.597 173.65C208.719 173.539 207.967 173.703 206.228 174.818ZM127.832 175.369C127.663 175.642 127.508 183.581 127.487 193.012C127.457 206.58 127.585 210.244 128.1 210.563C128.458 210.785 131.249 210.894 134.302 210.806C140.758 210.62 143.033 209.699 145.368 206.329L146.75 204.335V192.505C146.75 180.756 146.742 180.664 145.519 178.88C143.578 176.047 141.656 175.393 134.444 175.115C130.541 174.965 128.021 175.062 127.832 175.369ZM365.265 186.868C365.077 187.621 364.615 190.602 364.24 193.493C362.961 203.353 361.949 210.246 361.192 214.25C360.776 216.45 360.305 220.219 360.144 222.625L359.852 227H365.926C373.06 227 372.468 228.01 371.026 218.307C370.183 212.633 368.487 200.065 367.713 193.75C367.182 189.415 366.368 185.5 365.998 185.5C365.784 185.5 365.454 186.116 365.265 186.868ZM302.983 279.467C303.267 279.999 303.5 282.151 303.5 284.25C303.5 290.054 303.565 290 296.544 290C289.857 290 289.186 290.306 289.735 293.104C290.537 297.191 291.665 301.363 292.304 302.6C293.439 304.801 293.208 309.885 291.884 311.816C289.961 314.623 287.498 315.198 284.728 313.487C281.598 311.552 281.175 306.999 283.48 300.06C284.294 297.61 285.025 294.401 285.105 292.928L285.25 290.25L279 290.115C271.477 289.953 271.5 289.97 271.5 284.371C271.5 277.992 270.117 278.5 287.5 278.5C301.784 278.5 302.489 278.544 302.983 279.467Z" fill="#BE965C"/>
</svg>
